<?xml version="1.0" encoding="utf-8"?>
<!-- Generator: Adobe Illustrator 27.8.1, SVG Export Plug-In . SVG Version: 6.00 Build 0)  -->
<svg version="1.1" id="Layer_1" xmlns="http://www.w3.org/2000/svg" xmlns:xlink="http://www.w3.org/1999/xlink" x="0px" y="0px"
	 width="89.5px" height="100px" viewBox="0 0 89.5 100" style="enable-background:new 0 0 89.5 100;" xml:space="preserve">
<style type="text/css">
	.st0{fill:#0056A7;}
	.st1{fill:#ED1C24;}
	.st2{fill:#FFFFFF;}
</style>
<g id="Layer_1_00000085968291943486047440000004272367866742705543_">
	<g>
		<rect y="70.2" class="st0" width="89.5" height="13.6"/>
		<polygon class="st1" points="46.8,62.3 58.5,69.5 69.3,69.5 62,50.1 86.2,23.6 56,28.8 47.5,0 35.5,33.2 3.9,38.7 28.1,52.9 
			21,69.5 39.4,69.5 		"/>
		<polygon class="st1" points="7.9,100 23.6,84.8 14.4,84.8 		"/>
		<g>
			<path class="st2" d="M5,81.5H4.4v-9.2H5V81.5z"/>
			<path class="st2" d="M16.8,81.8L9,73.6v7.9H8.4v-9.3l7.7,8.1v-8h0.6V81.8z"/>
			<path class="st2" d="M24.4,73.9c-0.4-0.7-1-1.1-1.9-1.1c-1,0-1.7,0.8-1.7,1.8s0.9,1.4,1.7,1.7l1.8,0.9c0.7,0.4,1,1,1,1.8
				c0,1.5-1.4,2.7-2.9,2.7c-1.3,0-2.3-0.8-2.7-2l0.5-0.2c0.4,1,1.1,1.7,2.2,1.7c1.2,0,2.3-0.9,2.3-2.2c0-1-1.1-1.5-1.8-1.9l-1.7-0.9
				c-0.6-0.4-0.9-0.9-0.9-1.6c0-1.4,1-2.3,2.3-2.3c0.9,0,1.8,0.5,2.2,1.3L24.4,73.9z"/>
			<path class="st2" d="M28.9,81.5h-0.6v-9.2h1.6c0.7,0,1.4,0,2,0.5c0.6,0.5,0.8,1.2,0.8,1.9c0,0.7-0.3,1.4-0.8,1.8
				c-0.6,0.5-1.3,0.6-2,0.6h-1V81.5z M29.9,76.6c0.6,0,1.1-0.1,1.6-0.5c0.4-0.4,0.6-0.8,0.6-1.4c0-0.6-0.2-1.1-0.7-1.5
				s-1-0.4-1.6-0.4h-1v3.7H29.9L29.9,76.6z"/>
			<path class="st2" d="M36,72.9v3.3h3.7v0.5H36V81h3.8v0.5h-4.4v-9.2h4.4v0.5L36,72.9L36,72.9z"/>
			<path class="st2" d="M50.4,74.2c-0.7-0.9-1.9-1.4-3.1-1.4c-2.3,0-4.2,2-4.2,4.2c0,1.1,0.5,2.1,1.2,2.8c0.8,0.7,1.9,1.3,2.9,1.3
				s2.4-0.6,3.1-1.4v0.8c-0.9,0.7-1.9,1.1-3.1,1.1c-2.6,0-4.8-2.1-4.8-4.7c0-2.6,2.2-4.7,4.8-4.7c1.1,0,2.2,0.4,3,1.2V74.2z"/>
			<path class="st2" d="M55.6,81.5H55v-8.6h-2.4v-0.5H58v0.5h-2.4L55.6,81.5L55.6,81.5z"/>
			<path class="st2" d="M61.1,81.5h-0.6v-9.2h0.6V81.5z"/>
			<path class="st2" d="M73.5,77c0,2.6-2.2,4.7-4.8,4.7c-2.6,0-4.8-2.1-4.8-4.7s2.2-4.7,4.8-4.7C71.3,72.2,73.5,74.4,73.5,77z
				 M64.6,77c0,2.3,1.9,4.2,4.2,4.2s4.2-1.9,4.2-4.2s-1.9-4.2-4.2-4.2C66.4,72.8,64.6,74.7,64.6,77z"/>
			<path class="st2" d="M84.7,81.8l-7.7-8.2v7.9h-0.6v-9.3l7.7,8.1v-8h0.6V81.8z"/>
		</g>
		<g>
			<path class="st2" d="M53.1,52.6c-0.4-1.1-1.6-1.5-2.8-0.9c-1.2,0.5-2,1.7-1.6,2.8c0.4,1.2,1.6,1.4,2.8,0.9
				C52.7,54.9,53.5,53.8,53.1,52.6z M51.1,54.3c-0.4,0.2-0.8,0-1-0.4c-0.1-0.4,0.1-0.8,0.5-1c0.5-0.2,0.9,0,1,0.4
				C51.8,53.7,51.6,54.1,51.1,54.3z"/>
			<path class="st2" d="M56,50.9c0.6-0.6,0.7-1.3,0.2-1.9c-0.7-0.6-1.6-0.4-2.3,0.3l-1.5,1.4l2.7,2.6l1.1-1.1l-0.8-0.8L56,50.9z
				 M54.8,50.7l-0.1,0.1l-0.5-0.5l0.1-0.1c0.2-0.2,0.4-0.4,0.7-0.2C55.2,50.3,55,50.5,54.8,50.7z"/>
			<polygon class="st2" points="56.8,43.4 59.6,43.4 59.8,42.1 61.2,42.1 60.7,44.8 56.6,44.9 			"/>
			<path class="st2" d="M56.1,46l-0.8,1.5l3,2.7l0.8-1.5l-0.4-0.3l0.6-1l0.5,0l0.8-1.4L56.1,46z M57.9,47.9l-1-0.7l0-0.1
				c0.2,0,0.3,0.1,0.5,0.1l0.7,0.1L57.9,47.9z"/>
			<path class="st2" d="M47.5,36.4c0,1.4,0.6,2.6,1.6,3.1l0.8,0.5c1.2,0.6,2.2,1.8,2.2,3.3c0,2.4-2,4.6-4.5,5C45,48.6,43,47,43,44.6
				c0-1.5,0.9-3,2.1-3.9l0.8-0.7C46.9,39.2,47.5,37.8,47.5,36.4L47.5,36.4z"/>
			<path class="st2" d="M45,39.6l-0.6,0.5c-1.4,1.1-2.4,2.9-2.4,4.6c0,2.9,2.5,4.8,5.5,4.4c3-0.5,5.4-3.1,5.4-6l2.4-0.4
				c0,4.1-3.5,8-7.9,8.7l0,0l0,0c-4.4,0.7-7.9-2.2-7.9-6.3c0-2.7,1.5-5.3,3.7-7l0.3-0.2c2.3-1.7,3.8-4.3,3.8-7l0,4
				C47.4,36.7,46.4,38.5,45,39.6z"/>
			<path class="st2" d="M40.5,34.4l0.5-0.3c3.8-2.7,6.3-7,6.2-11.5l0.1,6.6c0,2.9-1.6,5.8-3.9,7.7l-1.1,0.8c-2.4,1.9-4,4.7-3.9,7.7
				c0,4.7,4.1,7.9,9.1,7.2l0,3.8c-7.2,1.1-13.1-3.6-13.1-10.4C34.3,41.4,36.8,37.2,40.5,34.4z"/>
		</g>
	</g>
</g>
</svg>
