<?xml version="1.0" encoding="utf-8"?>
<!-- Generator: Adobe Illustrator 27.8.1, SVG Export Plug-In . SVG Version: 6.00 Build 0)  -->
<svg version="1.1" id="Layer_1" xmlns="http://www.w3.org/2000/svg" xmlns:xlink="http://www.w3.org/1999/xlink" x="0px" y="0px"
	 width="107.4px" height="120px" viewBox="0 0 107.4 120" style="enable-background:new 0 0 107.4 120;" xml:space="preserve">
<style type="text/css">
	.st0{fill:#0056A6;}
	.st1{fill:none;}
	.st2{fill:#EC1C24;}
</style>
<g>
	<path class="st0" d="M71.8,87.2h-2v10h2c3.3,0,4.8-2,4.8-5V92C76.6,89.2,75.1,87.2,71.8,87.2z"/>
	<path class="st0" d="M23.3,89.6L23.3,89.6c0-1.8-1.2-2.4-2.9-2.4H18v4.8h2.3C22.2,91.9,23.3,91.2,23.3,89.6z"/>
	<path class="st0" d="M35.6,87c-2.8,0-4.7,2.2-4.7,5v0.1c0,2.9,2,5,4.7,5c2.7,0,4.6-2.1,4.6-5.1V92C40.2,89.3,38.4,87,35.6,87z"/>
	<path class="st0" d="M102.9,89.6L102.9,89.6c0-1.8-1.2-2.4-2.9-2.4h-2.3v4.8h2.3C101.8,91.9,102.9,91.2,102.9,89.6z"/>
	<path class="st0" d="M0,84.2v16.3h107.4V84.2H0z M11.1,89.7c0,2.4-1.7,3.3-3.9,3.3H5v4.9H4.1V86.4h3C9.4,86.4,11.1,87.3,11.1,89.7
		L11.1,89.7z M23.9,97.9l-3.6-5.2H18v5.2h-0.9V86.4h3.1c2.2,0,3.9,0.9,3.9,3.1v0.1c0,1.9-1.2,2.8-3,3l3.6,5.3H23.9z M41.1,92.2
		c0,3.2-2.3,5.8-5.5,5.8c-3.3,0-5.6-2.6-5.6-5.8v-0.1c0-3.3,2.4-5.8,5.6-5.8c3.2,0,5.6,2.5,5.6,5.8V92.2z M51.1,97.9H50l-4.1-11.4
		h0.9L50.6,97l3.7-10.6h0.8L51.1,97.9z M61.9,97.9H61V86.4h0.9V97.9z M77.6,92.2c0,3.2-1.8,5.7-5.7,5.7h-2.9V86.4h3
		c3.8,0,5.7,2.4,5.7,5.6V92.2z M90.6,97.9h-6.9V86.4h6.6v0.7h-5.7v4.5h4.6v0.7h-4.6v4.8h6V97.9z M103.5,97.9l-3.6-5.2h-2.2v5.2h-0.9
		V86.4h3.1c2.2,0,3.9,0.9,3.9,3.1v0.1c0,1.9-1.2,2.8-3,3l3.6,5.3H103.5z"/>
	<path class="st0" d="M7.2,87.2H5v5.1h2.2c1.8,0,2.9-0.8,2.9-2.5v-0.1C10.2,87.8,9,87.2,7.2,87.2z"/>
</g>
<g>
	<polygon class="st1" points="73.1,50.6 71.5,50.6 71.2,52.1 67.9,52.1 67.6,53.8 72.6,53.8 	"/>
	<path class="st1" d="M69.6,60.3l0.9-1.7l-0.5-0.3l0.7-1.2l0.6,0.1l0.9-1.7L67,55.2l-1,1.8L69.6,60.3z M68,56.6
		c0.2,0,0.4,0.1,0.6,0.1l0.9,0.1l-0.4,0.7L68,56.6L68,56.6z"/>
	<path class="st1" d="M54.8,48l-1,0.8c-1.5,1.2-2.6,2.9-2.6,4.7c0,2.9,2.4,4.8,5.5,4.4c3-0.5,5.4-3.1,5.4-6c0-1.8-1.1-3.2-2.6-3.9
		l-0.9-0.6c-1.2-0.6-1.9-2-1.9-3.7l0,0C56.7,45.4,56,47,54.8,48z"/>
	<polygon class="st1" points="46.9,83.4 69.8,83.4 55.9,74.7 	"/>
	<path class="st1" d="M60,62c-1.5,0.6-2.4,2-1.9,3.4c0.5,1.4,1.9,1.7,3.4,1.1c1.5-0.6,2.4-2,1.9-3.4C63,61.7,61.5,61.4,60,62z
		 M61,65.1c-0.5,0.2-1,0-1.2-0.5c-0.2-0.5,0.1-1,0.6-1.2c0.6-0.2,1,0,1.2,0.5C61.8,64.4,61.6,64.9,61,65.1z"/>
	<path class="st1" d="M67,58.8c-0.8-0.8-1.9-0.5-2.8,0.3l-1.8,1.7l3.3,3.1l1.3-1.3l-1-0.9l0.7-0.7C67.6,60.3,67.7,59.5,67,58.8z
		 M65.5,60.8L65.3,61l-0.6-0.5l0.1-0.1c0.2-0.2,0.5-0.5,0.8-0.2C65.9,60.3,65.7,60.6,65.5,60.8z"/>
	<path class="st1" d="M56.7,67.6l0-4.6c-6,0.9-10.9-3-10.9-8.6c0-3.5,1.9-6.9,4.7-9.2l1.3-0.9c2.9-2.3,4.8-5.7,4.7-9.2L56.4,27
		c0,5.4-3,10.6-7.5,13.8l-0.6,0.4c-4.5,3.3-7.5,8.4-7.4,13.8C41,63.3,48,68.9,56.7,67.6z"/>
	<path class="st1" d="M52,45.5l-0.4,0.3c-2.7,2-4.5,5.1-4.5,8.4c0,5,4.3,8.4,9.5,7.6h0c0,0,0,0,0,0c5.2-0.8,9.5-5.4,9.5-10.4
		l-2.9,0.4c0,3.4-2.9,6.6-6.5,7.2c-3.6,0.5-6.6-1.8-6.6-5.2c0-2.1,1.1-4.2,2.9-5.6l0.8-0.6c1.7-1.4,2.9-3.4,2.9-5.6l-0.1-4.8
		C56.5,40.4,54.7,43.5,52,45.5z"/>
	<path class="st2" d="M69.5,56.8l-0.9-0.1c-0.2,0-0.4-0.1-0.6-0.1l0,0.1l1.2,0.8L69.5,56.8z"/>
	<path class="st2" d="M60.5,63.4c-0.6,0.2-0.8,0.8-0.6,1.2c0.2,0.5,0.6,0.7,1.2,0.5c0.5-0.2,0.8-0.7,0.6-1.2
		C61.5,63.4,61,63.2,60.5,63.4z"/>
	<path class="st2" d="M64.9,60.3l-0.1,0.1l0.6,0.5l0.1-0.1c0.2-0.2,0.5-0.5,0.2-0.8C65.4,59.8,65.1,60.1,64.9,60.3z"/>
	<path class="st2" d="M55.9,74.7l14,8.7h13l-8.7-23.3l29-31.8l-36.2,6.3L56.8,0L42.2,39.9L4.4,46.5l29.1,16.9l-8.6,20h22.1
		L55.9,74.7z M61.5,66.5c-1.5,0.6-2.9,0.3-3.4-1.1C57.6,64,58.5,62.6,60,62c1.5-0.6,3-0.2,3.4,1.1C63.9,64.5,62.9,65.9,61.5,66.5z
		 M67.1,62.7L65.8,64l-3.3-3.1l1.8-1.7c0.9-0.9,1.9-1.1,2.8-0.3c0.7,0.6,0.6,1.5-0.2,2.3l-0.7,0.7L67.1,62.7z M67.9,52.1l3.4,0
		l0.2-1.5l1.6,0l-0.5,3.2l-5,0L67.9,52.1z M67,55.2l5.3,0.1L71.4,57l-0.6-0.1l-0.7,1.2l0.5,0.3l-0.9,1.7L66.1,57L67,55.2z
		 M56.7,43.7c0,1.7,0.7,3.1,1.9,3.7l0.9,0.6c1.5,0.7,2.6,2.1,2.6,3.9c0,2.9-2.4,5.6-5.4,6c-3,0.5-5.4-1.5-5.5-4.4
		c0-1.8,1.1-3.5,2.6-4.7l1-0.8C56,47,56.7,45.4,56.7,43.7L56.7,43.7z M53.7,47.5l-0.8,0.6c-1.7,1.4-2.9,3.4-2.9,5.6
		c0,3.4,3,5.8,6.6,5.2c3.6-0.5,6.5-3.8,6.5-7.2l2.9-0.4c0,5-4.2,9.6-9.5,10.4c0,0,0,0,0,0h0c-5.2,0.8-9.5-2.6-9.5-7.6
		c0-3.2,1.8-6.4,4.5-8.4l0.4-0.3c2.7-2,4.5-5.1,4.5-8.4l0.1,4.8C56.6,44.1,55.4,46.2,53.7,47.5z M48.3,41.3l0.6-0.4
		c4.5-3.3,7.5-8.5,7.5-13.8l0.1,7.9c0,3.5-1.9,6.9-4.7,9.2l-1.3,0.9c-2.9,2.3-4.8,5.7-4.7,9.2c0,5.7,4.9,9.5,10.9,8.6l0,4.6
		C48,68.9,41,63.3,40.9,55.1C40.9,49.7,43.9,44.6,48.3,41.3z"/>
	<polygon class="st2" points="9.2,120 28,101.7 17,101.7 	"/>
</g>
</svg>
